G04*
G04 #@! TF.GenerationSoftware,Altium Limited,Altium Designer,24.2.2 (26)*
G04*
G04 Layer_Physical_Order=2*
G04 Layer_Color=16711680*
%FSLAX44Y44*%
%MOMM*%
G71*
G04*
G04 #@! TF.SameCoordinates,40936419-4C82-434F-9087-BBFFA31A611E*
G04*
G04*
G04 #@! TF.FilePolarity,Positive*
G04*
G01*
G75*
%ADD15R,0.7000X0.7000*%
%ADD16R,1.2000X0.9000*%
%ADD22C,0.5000*%
%ADD23R,2.0000X1.6000*%
%ADD24O,2.0000X1.6000*%
%ADD25C,0.6000*%
%ADD26C,0.1000*%
G36*
X135000Y157417D02*
X134819Y157146D01*
X134392Y155000D01*
Y113525D01*
X134270Y113443D01*
X133000Y114122D01*
Y116400D01*
X107000D01*
Y94400D01*
X133000D01*
Y99792D01*
X135000D01*
Y85608D01*
X130982D01*
X129517Y87517D01*
X127316Y89207D01*
X124752Y90269D01*
X122000Y90631D01*
X121270D01*
Y80000D01*
Y69369D01*
X122000D01*
X124752Y69731D01*
X127316Y70793D01*
X129517Y72483D01*
X130982Y74392D01*
X134392D01*
Y30929D01*
X134479Y30492D01*
X133673Y29510D01*
X31290D01*
Y13510D01*
X135000D01*
Y0D01*
X0D01*
Y177800D01*
X135000D01*
Y157417D01*
D02*
G37*
%LPC*%
G36*
X118730Y90631D02*
X118000D01*
X115248Y90269D01*
X112684Y89207D01*
X110483Y87517D01*
X108793Y85316D01*
X107731Y82751D01*
X107536Y81270D01*
X118730D01*
Y90631D01*
D02*
G37*
G36*
Y78730D02*
X107536D01*
X107731Y77249D01*
X108793Y74685D01*
X110483Y72483D01*
X112684Y70793D01*
X115248Y69731D01*
X118000Y69369D01*
X118730D01*
Y78730D01*
D02*
G37*
G36*
X74270Y43470D02*
Y39270D01*
X78470D01*
X77697Y41138D01*
X76138Y42697D01*
X74270Y43470D01*
D02*
G37*
G36*
X71730D02*
X69862Y42697D01*
X68303Y41138D01*
X67530Y39270D01*
X71730D01*
Y43470D01*
D02*
G37*
G36*
X78470Y36730D02*
X74270D01*
Y32530D01*
X76138Y33303D01*
X77697Y34862D01*
X78470Y36730D01*
D02*
G37*
G36*
X71730D02*
X67530D01*
X68303Y34862D01*
X69862Y33303D01*
X71730Y32530D01*
Y36730D01*
D02*
G37*
%LPD*%
D15*
X160000Y42000D02*
D03*
Y28000D02*
D03*
D16*
Y139500D02*
D03*
Y160500D02*
D03*
D22*
Y42000D02*
Y139500D01*
X159500Y160000D02*
X160000Y160500D01*
X145000Y160000D02*
X159500D01*
X140000Y155000D02*
X145000Y160000D01*
X140000Y30929D02*
Y77071D01*
Y30929D02*
X142929Y28000D01*
X160000D01*
X120000Y80000D02*
X137071D01*
X140000Y77071D01*
X120000Y105400D02*
X135400D01*
X140000Y110000D02*
Y155000D01*
X135400Y105400D02*
X140000Y110000D01*
D23*
X120000Y105400D02*
D03*
D24*
Y80000D02*
D03*
D25*
X73000Y38000D02*
D03*
D26*
X35290Y19509D02*
X38289D01*
X39289Y20509D01*
X38289Y21509D01*
X36290D01*
X35290Y22508D01*
X36290Y23508D01*
X39289D01*
X41288D02*
Y20509D01*
X42288Y19509D01*
X45287D01*
Y18510D01*
X44287Y17510D01*
X43287D01*
X45287Y19509D02*
Y23508D01*
X47286Y19509D02*
X50285D01*
X51285Y20509D01*
X50285Y21509D01*
X48286D01*
X47286Y22508D01*
X48286Y23508D01*
X51285D01*
X53284Y19509D02*
Y25507D01*
Y21509D02*
X56283Y23508D01*
X53284Y21509D02*
X56283Y19509D01*
X59282D02*
X61282D01*
X60282D01*
Y23508D01*
X59282D01*
X68279Y25507D02*
Y19509D01*
X65280D01*
X64281Y20509D01*
Y22508D01*
X65280Y23508D01*
X68279D01*
X71278Y19509D02*
X73278D01*
X74277Y20509D01*
Y22508D01*
X73278Y23508D01*
X71278D01*
X70279Y22508D01*
Y20509D01*
X71278Y19509D01*
X78276D02*
X76277D01*
Y25507D01*
X78276D01*
X81275Y23508D02*
Y20509D01*
X82275Y19509D01*
X85274D01*
Y18510D01*
X84274Y17510D01*
X83274D01*
X85274Y19509D02*
Y23508D01*
X87273D02*
Y20509D01*
X88273Y19509D01*
X91272D01*
Y23508D01*
X93271Y19509D02*
Y23508D01*
X96270D01*
X97270Y22508D01*
Y19509D01*
X105267D02*
Y25507D01*
Y21509D02*
X108266Y23508D01*
X105267Y21509D02*
X108266Y19509D01*
X111265D02*
X113265D01*
X112265D01*
Y23508D01*
X111265D01*
X120262Y25507D02*
Y19509D01*
X117263D01*
X116264Y20509D01*
Y22508D01*
X117263Y23508D01*
X120262D01*
X123261Y19509D02*
X125261D01*
X126260Y20509D01*
Y22508D01*
X125261Y23508D01*
X123261D01*
X122262Y22508D01*
Y20509D01*
X123261Y19509D01*
X128260D02*
X130259D01*
Y25507D01*
X128260D01*
M02*
