G04*
G04 #@! TF.GenerationSoftware,Altium Limited,Altium Designer,24.2.2 (26)*
G04*
G04 Layer_Color=6740479*
%FSLAX44Y44*%
%MOMM*%
G71*
G04*
G04 #@! TF.SameCoordinates,40936419-4C82-434F-9087-BBFFA31A611E*
G04*
G04*
G04 #@! TF.FilePolarity,Positive*
G04*
G01*
G75*
%ADD10C,0.2000*%
%ADD14R,1.4000X0.4000*%
%ADD26C,0.1000*%
%ADD27C,0.0600*%
D10*
X153000Y18000D02*
X167000D01*
Y49000D01*
X153000D02*
X167000D01*
X153000Y18000D02*
Y49000D01*
X150000Y131000D02*
X170000D01*
Y169000D01*
X150000D02*
X170000D01*
X150000Y131000D02*
Y169000D01*
D14*
X160003Y20001D02*
D03*
D26*
X144998Y167001D02*
Y172999D01*
X141999D01*
X141000Y171999D01*
Y170000D01*
X141999Y169000D01*
X144998D01*
X142999D02*
X141000Y167001D01*
X135002D02*
X139000D01*
X135002Y171000D01*
Y171999D01*
X136001Y172999D01*
X138001D01*
X139000Y171999D01*
D27*
X163332Y11999D02*
Y8001D01*
X161333D01*
X160667Y8667D01*
Y11333D01*
X161333Y11999D01*
X163332D01*
X156668Y8001D02*
X159334D01*
X156668Y10667D01*
Y11333D01*
X157334Y11999D01*
X158667D01*
X159334Y11333D01*
M02*
